# xmcd
#
# Track frame offsets:
#	150
#	13352
#	26968
#	39515
#	53621
#	72325
#	90021
#	109859
#	123536
#	133202
#
# Disc length: 1944 seconds
#
# Revision: 0
# Processed by: cddbd v1.5.2PL0 Copyright (c) Steve Scherf et al.
# Submitted via: audiograbber 1.83.01
#
DISCID=8807960a
DTITLE=Various Artist - FH-7106 Foever Hits/Classic Ladies Of Country
DYEAR=1900
DGENRE=Karaoke
TTITLE0=Patsy Cline - Crazy
TTITLE1=Patsy Cline - I Fall To Pieces
TTITLE2=Patsy Cline - Walkin' After Midnight
TTITLE3=Patsy Cline - She's Got You
TTITLE4=Wynonna Judd - No One Else On Earth
TTITLE5=Judds - Love Is Alive
TTITLE6=Judds - Grandpa Tell Us About The Good Old Days
TTITLE7=Tammy Wynette - DIVORCE
TTITLE8=Tammy Wynette - Your Good Girl's Gone Bad
TTITLE9=Tammy Wynette - Stand By Your Man
EXTD=
EXTT0=
EXTT1=
EXTT2=
EXTT3=
EXTT4=
EXTT5=
EXTT6=
EXTT7=
EXTT8=
EXTT9=
PLAYORDER=
